<svg id="Layer_1" data-name="Layer 1" xmlns="http://www.w3.org/2000/svg" viewBox="0 0 1269.92 310.68"><defs><style>.cls-1{fill:#f97015;}</style></defs><path class="cls-1" d="M382,117.77l-10,20.37H311.63V156h38.24v20.51H311.63v17.87h60.55l10,20.37H291.27v-97Zm41.42,0v76.62h60.27l10,20.37H402.94v-97Zm78.42,20.37V117.77h90.62l-10,20.37H553v76.62H532.21V138.14ZM690,117.77l12.89,12.89v40.46l-12.89,13h-3.74q2.64,3.6,5.69,7.62l6.09,8q3,4,6,7.89t5.4,7.07H683.64l-22.72-30.48H633.63v30.48H613.26v-97ZM633.76,163.5h46.56l2.07-2.08V140.36l-2.07-2.08H633.76Zm109.18-45.73h63.6l13,12.89v84.1H799.05V184.28H750.7v30.48H730.19v-84.1Zm7.9,45.73h48.08V140.36l-2.08-2.08H752.92l-2.08,2.08Zm109.87-45.73v97H840.34v-97Zm33.53,0h63.31l13.31,13.17v83.82H950.07V140.08a7.77,7.77,0,0,0-.69-.9,4.72,4.72,0,0,0-1.11-.9H904.21l-2.49,2.35v74.13H881.49v-84.1Zm188.15,0-10,20.37H1012V156h38.24v20.51H1012v17.87h60.55l10,20.37H991.64v-97Zm97.68,0L1193,130.66v40.46l-12.88,13h-3.74q2.63,3.6,5.68,7.62l6.09,8q3,4,6,7.89t5.4,7.07h-25.77L1151,184.28h-27.29v30.48h-20.37v-97Zm-56.26,45.73h46.56l2.08-2.08V140.36l-2.08-2.08h-46.56Z"/><path class="cls-1" d="M182.65,144v33.25H149.41L182.65,144Zm0,0V110.74H149.41V144Zm-33.24,0H116.16v33.25h33.25Zm33.24,66.49h-78.8v33.24h45.32Zm-66.49-99.73H82.92V144h33.24Zm0,133V144H82.92v99.73ZM82.92,177.23V144H49.68l33.24,33.25ZM116.16,77.5H82.92v33.24L116.16,77.5Zm66.49,0H116.16v33.24h66.49Z"/></svg>